<svg xmlns="http://www.w3.org/2000/svg" viewBox="0 0 32 32" width="100%" height="100%">
  <defs>
    <style>
      .case { fill: #E8E4D9; }
      .case-dark { fill: #C4C0B6; }
      .screen { fill: #1E252B; }
      .eye { fill: #2ECC71; }
      .thruster { fill: #7F8C8D; }
      .shadow { fill: #EAEAEA; }
      
      .squish { animation: squish 1.5s infinite steps(2, end); }
      .page { transform-origin: 16px 20px; animation: flip 2s infinite ease-in-out; }

      @keyframes squish { 0%, 100% { transform: translateY(0px); } 50% { transform: translateY(1px); } }
      @keyframes flip { 0%, 15% { transform: scaleX(1); } 40%, 60% { transform: scaleX(-1); fill: #E0E0E0; } 85%, 100% { transform: scaleX(1); } }
    </style>
  </defs>
  <g shape-rendering="crispEdges">
    <rect x="8" y="25" width="16" height="1" class="shadow"/>

    <rect x="10" y="24" width="4" height="1" class="thruster"/>
    <rect x="11" y="22" width="2" height="2" class="case-dark"/>
    <rect x="18" y="24" width="4" height="1" class="thruster"/>
    <rect x="19" y="22" width="2" height="2" class="case-dark"/>
    
    <g class="squish">
      <rect x="9" y="8" width="14" height="1" class="case"/>
      <rect x="8" y="9" width="16" height="12" class="case"/>
      <rect x="9" y="21" width="14" height="2" class="case-dark"/>
      <rect x="8" y="21" width="1" height="1" class="case-dark"/>
      <rect x="23" y="21" width="1" height="1" class="case-dark"/>
      
      <rect x="10" y="10" width="12" height="9" class="screen"/>
      <rect x="9" y="11" width="1" height="7" class="screen"/>
      <rect x="22" y="11" width="1" height="7" class="screen"/>
      
      <!-- Glasses on screen -->
      <g fill="#2ECC71" opacity="0.4">
        <!-- frames -->
        <rect x="10" y="12" width="5" height="5"/>
        <rect x="17" y="12" width="5" height="5"/>
        <rect x="15" y="13" width="2" height="1"/>
      </g>

      <rect x="12" y="13" width="2" height="3" class="eye"/>
      <rect x="18" y="13" width="2" height="3" class="eye"/>

      <!-- Book -->
      <g transform="translate(0, 1)">
        <rect x="9" y="17" width="14" height="6" fill="#A85232" />
        <rect x="15" y="17" width="2" height="6" fill="#8A4024" />
        <rect x="10" y="18" width="6" height="4" fill="#F5F5F5" />
        <rect x="16" y="18" width="6" height="4" fill="#F5F5F5" />
        <rect x="11" y="19" width="4" height="1" fill="#CCCCCC" />
        <rect x="11" y="20" width="3" height="1" fill="#CCCCCC" />
        <rect x="17" y="19" width="4" height="1" fill="#CCCCCC" />
        <rect x="16" y="18" width="6" height="4" fill="#FFF" class="page" />
      </g>
    </g>
  </g>
</svg>
