<svg xmlns="http://www.w3.org/2000/svg" viewBox="0 0 32 32" width="100%" height="100%">
  <defs>
    <style>
      .case { fill: #E8E4D9; }
      .case-dark { fill: #C4C0B6; }
      .screen { fill: #1E252B; }
      .eye { fill: #2ECC71; }
      .thruster { fill: #7F8C8D; }
      .shadow { fill: #EAEAEA; }
      .blush { fill: #FF8A8A; }
      .white { fill: #F5F5F5; }
      .lines { fill: #CCCCCC; }
      
      .squish { animation: squish 1.5s infinite steps(2, end); }
      .look { animation: scan 3s infinite steps(3, end); }
      .note1 { animation: float1 4s infinite linear; }
      .note2 { animation: float2 5s infinite linear; transform-origin: center; }
      .hand-l { animation: hand-bob-l 2.5s infinite ease-in-out; }

      @keyframes squish { 0%, 100% { transform: translateY(0px); } 50% { transform: translateY(1px); } }
      @keyframes scan {
        0%, 90%, 100% { transform: translateX(0); }
        10%, 40% { transform: translateX(-2px); }
        50%, 80% { transform: translateX(2px); }
      }
      @keyframes float1 {
        0% { transform: translate(0, 0) rotate(0deg); }
        25% { transform: translate(-2px, -4px) rotate(-10deg); }
        50% { transform: translate(1px, -8px) rotate(5deg); }
        75% { transform: translate(3px, -4px) rotate(15deg); }
        100% { transform: translate(0, 0) rotate(0deg); }
      }
      @keyframes float2 {
        0% { transform: translate(0, 0) rotate(0deg); }
        33% { transform: translate(4px, 2px) rotate(15deg); }
        66% { transform: translate(-2px, 5px) rotate(-5deg); }
        100% { transform: translate(0, 0) rotate(0deg); }
      }
      @keyframes hand-bob-l { 0%, 100% { transform: translateY(0px) rotate(-10deg); } 50% { transform: translateY(-2px) rotate(-15deg); } }
    </style>
  </defs>

  <g class="note2">
    <rect x="22" y="5" width="6" height="7" class="white"/>
    <rect x="23" y="6" width="4" height="1" class="lines"/>
    <rect x="23" y="8" width="3" height="1" class="lines"/>
    <rect x="23" y="10" width="4" height="1" class="lines"/>
  </g>

  <g shape-rendering="crispEdges">
    <rect x="8" y="25" width="16" height="1" class="shadow"/>

    <rect x="10" y="24" width="4" height="1" class="thruster"/>
    <rect x="11" y="22" width="2" height="2" class="case-dark"/>
    <rect x="18" y="24" width="4" height="1" class="thruster"/>
    <rect x="19" y="22" width="2" height="2" class="case-dark"/>
    
    <g class="squish">
      <rect x="9" y="8" width="14" height="1" class="case"/>
      <rect x="8" y="9" width="16" height="12" class="case"/>
      <rect x="9" y="21" width="14" height="2" class="case-dark"/>
      <rect x="8" y="21" width="1" height="1" class="case-dark"/>
      <rect x="23" y="21" width="1" height="1" class="case-dark"/>
      
      <rect x="10" y="10" width="12" height="9" class="screen"/>
      <rect x="9" y="11" width="1" height="7" class="screen"/>
      <rect x="22" y="11" width="1" height="7" class="screen"/>
      
      <g class="look">
        <rect x="12" y="13" width="2" height="3" class="eye"/>
        <rect x="18" y="13" width="2" height="3" class="eye"/>
      </g>
      <rect x="10" y="16" width="2" height="1" class="blush"/>
      <rect x="20" y="16" width="2" height="1" class="blush"/>

      <g class="hand-l" style="transform-origin: 6px 18px">
        <rect x="4" y="17" width="3" height="3" class="case"/>
        <rect x="4" y="20" width="3" height="1" class="case-dark"/>
      </g>
    </g>
  </g>

  <g class="note1">
    <rect x="3" y="10" width="5" height="6" class="white"/>
    <rect x="4" y="11" width="3" height="1" class="lines"/>
    <rect x="4" y="13" width="2" height="1" class="lines"/>
  </g>
</svg>
